<svg xmlns="http://www.w3.org/2000/svg" xlink="http://www.w3.org/1999/xlink" width="0" height="0" style="display:none;"><symbol viewBox="0 0 24 24" id="git-branch-line"><path fill="none" d="M0 0h24v24H0z"/><path d="M7.105 15.21A3.001 3.001 0 1 1 5 15.17V8.83a3.001 3.001 0 1 1 2 0V12c.836-.628 1.874-1 3-1h4a3.001 3.001 0 0 0 2.895-2.21 3.001 3.001 0 1 1 2.032.064A5.001 5.001 0 0 1 14 13h-4a3.001 3.001 0 0 0-2.895 2.21zM6 17a1 1 0 1 0 0 2 1 1 0 0 0 0-2zM6 5a1 1 0 1 0 0 2 1 1 0 0 0 0-2zm12 0a1 1 0 1 0 0 2 1 1 0 0 0 0-2z"/></symbol><symbol viewBox="0 0 24 24" id="git-repository-line"><path fill="none" d="M0 0h24v24H0z"/><path d="M13 21v2.5l-3-2-3 2V21h-.5A3.5 3.5 0 0 1 3 17.5V5a3 3 0 0 1 3-3h14a1 1 0 0 1 1 1v17a1 1 0 0 1-1 1h-7zm0-2h6v-3H6.5a1.5 1.5 0 0 0 0 3H7v-2h6v2zm6-5V4H6v10.035A3.53 3.53 0 0 1 6.5 14H19zM7 5h2v2H7V5zm0 3h2v2H7V8zm0 3h2v2H7v-2z"/></symbol><symbol viewBox="0 0 24 24" id="github-fill"><path fill="none" d="M0 0h24v24H0z"/><path d="M12 2C6.475 2 2 6.475 2 12a9.994 9.994 0 0 0 6.838 9.488c.5.087.687-.213.687-.476 0-.237-.013-1.024-.013-1.862-2.512.463-3.162-.612-3.362-1.175-.113-.288-.6-1.175-1.025-1.413-.35-.187-.85-.65-.013-.662.788-.013 1.35.725 1.538 1.025.9 1.512 2.338 1.087 2.912.825.088-.65.35-1.087.638-1.337-2.225-.25-4.55-1.113-4.55-4.938 0-1.088.387-1.987 1.025-2.688-.1-.25-.45-1.275.1-2.65 0 0 .837-.262 2.75 1.026a9.28 9.28 0 0 1 2.5-.338c.85 0 1.7.112 2.5.337 1.912-1.3 2.75-1.024 2.75-1.024.55 1.375.2 2.4.1 2.65.637.7 1.025 1.587 1.025 2.687 0 3.838-2.337 4.688-4.562 4.938.362.312.675.912.675 1.85 0 1.337-.013 2.412-.013 2.75 0 .262.188.574.688.474A10.016 10.016 0 0 0 22 12c0-5.525-4.475-10-10-10z"/></symbol><symbol viewBox="0 0 24 24" id="zhihu-line"><path fill="none" d="M0 0h24v24H0z"/><path d="M12.344 17.963l-1.688 1.074-2.131-3.35c-.44 1.402-1.172 2.665-2.139 3.825-.402.483-.82.918-1.301 1.375-.155.147-.775.717-.878.82l-1.414-1.414c.139-.139.787-.735.915-.856.43-.408.795-.79 1.142-1.206 1.266-1.518 2.03-3.21 2.137-5.231H3v-2h4V7h-.868c-.689 1.266-1.558 2.222-2.618 2.857L2.486 8.143c1.395-.838 2.425-2.604 3.038-5.36l1.952.434c-.14.633-.303 1.227-.489 1.783H11.5v2H9v4h2.5v2H9.185l3.159 4.963zm3.838-.07L17.298 17H19V7h-4v10h.736l.446.893zM13 5h8v14h-3l-2.5 2-1-2H13V5z"/></symbol><symbol viewBox="0 0 24 24" id="arrow-right-line"><path fill="none" d="M0 0h24v24H0z"/><path d="M16.172 11l-5.364-5.364 1.414-1.414L20 12l-7.778 7.778-1.414-1.414L16.172 13H4v-2z"/></symbol><symbol viewBox="0 0 24 24" id="arrow-right-up-line"><path fill="none" d="M0 0h24v24H0z"/><path d="M16.004 9.414l-8.607 8.607-1.414-1.414L14.589 8H7.004V6h11v11h-2V9.414z"/></symbol><symbol viewBox="0 0 24 24" id="arrow-left-line"><path fill="none" d="M0 0h24v24H0z"/><path d="M7.828 11H20v2H7.828l5.364 5.364-1.414 1.414L4 12l7.778-7.778 1.414 1.414z"/></symbol><symbol viewBox="0 0 24 24" id="share-line"><path fill="none" d="M0 0h24v24H0z"/><path d="M13.12 17.023l-4.199-2.29a4 4 0 1 1 0-5.465l4.2-2.29a4 4 0 1 1 .959 1.755l-4.2 2.29a4.008 4.008 0 0 1 0 1.954l4.199 2.29a4 4 0 1 1-.959 1.755zM6 14a2 2 0 1 0 0-4 2 2 0 0 0 0 4zm11-6a2 2 0 1 0 0-4 2 2 0 0 0 0 4zm0 12a2 2 0 1 0 0-4 2 2 0 0 0 0 4z"/></symbol><symbol viewBox="0 0 24 24" id="clipboard-line"><path fill="none" d="M0 0h24v24H0z"/><path d="M7 4V2h10v2h3.007c.548 0 .993.445.993.993v16.014a.994.994 0 0 1-.993.993H3.993A.994.994 0 0 1 3 21.007V4.993C3 4.445 3.445 4 3.993 4H7zm0 2H5v14h14V6h-2v2H7V6zm2-2v2h6V4H9z"/></symbol><symbol viewBox="0 0 24 24" id="creative-commons-by-line"><path fill="none" d="M0 0h24v24H0z"/><path d="M12 2c5.523 0 10 4.477 10 10s-4.477 10-10 10S2 17.523 2 12 6.477 2 12 2zm0 2a8 8 0 1 0 0 16 8 8 0 0 0 0-16zm2 6a1 1 0 0 1 1 1v4h-1.5v4h-3v-4H9v-4a1 1 0 0 1 1-1h4zm-2-5a2 2 0 1 1 0 4 2 2 0 0 1 0-4z"/></symbol><symbol viewBox="0 0 24 24" id="creative-commons-nc-line"><path fill="none" d="M0 0h24v24H0z"/><path d="M12 2c5.523 0 10 4.477 10 10 0 2.4-.846 4.604-2.256 6.328l.034.036-1.414 1.414-.036-.034A9.959 9.959 0 0 1 12 22C6.477 22 2 17.523 2 12S6.477 2 12 2zM4 12a8 8 0 0 0 12.905 6.32l-2.375-2.376A2.51 2.51 0 0 1 14 16h-1v2h-2v-2H8.5v-2H14a.5.5 0 0 0 .09-.992L14 13h-4a2.5 2.5 0 0 1-2.165-3.75L5.679 7.094A7.965 7.965 0 0 0 4 12zm8-8c-1.848 0-3.55.627-4.905 1.68L9.47 8.055A2.51 2.51 0 0 1 10 8h1V6h2v2h2.5v2H10a.5.5 0 0 0-.09.992L10 11h4a2.5 2.5 0 0 1 2.165 3.75l2.156 2.155A8 8 0 0 0 12 4z"/></symbol><symbol viewBox="0 0 24 24" id="creative-commons-nd-line"><path fill="none" d="M0 0h24v24H0z"/><path d="M12 2c5.523 0 10 4.477 10 10s-4.477 10-10 10S2 17.523 2 12 6.477 2 12 2zm0 2a8 8 0 1 0 0 16 8 8 0 0 0 0-16zm4 9v2H8v-2h8zm0-4v2H8V9h8z"/></symbol><symbol viewBox="0 0 24 24" id="creative-commons-sa-line"><path fill="none" d="M0 0h24v24H0z"/><path d="M12 2c5.52 0 10 4.48 10 10s-4.48 10-10 10S2 17.52 2 12 6.48 2 12 2zm0 2c-4.415 0-8 3.585-8 8s3.585 8 8 8 8-3.585 8-8-3.585-8-8-8zm0 2c2.761 0 5 2.686 5 6s-2.239 6-5 6c-2.177 0-4.029-1.67-4.715-4l2.117.001C9.92 15.196 10.89 16 12 16c1.657 0 3-1.79 3-4s-1.343-4-3-4c-1.11 0-2.08.805-2.599 2H11l-2.5 3L6 10h1.284C7.971 7.67 9.823 6 12 6z"/></symbol><symbol viewBox="0 0 24 24" id="rss-line"><path fill="none" d="M0 0h24v24H0z"/><path d="M3 17a4 4 0 0 1 4 4H3v-4zm0-7c6.075 0 11 4.925 11 11h-2a9 9 0 0 0-9-9v-2zm0-7c9.941 0 18 8.059 18 18h-2c0-8.837-7.163-16-16-16V3z"/></symbol><symbol viewBox="0 0 24 24" id="link"><path fill="none" d="M0 0h24v24H0z"/><path d="M18.364 15.536L16.95 14.12l1.414-1.414a5 5 0 1 0-7.071-7.071L9.879 7.05 8.464 5.636 9.88 4.222a7 7 0 0 1 9.9 9.9l-1.415 1.414zm-2.828 2.828l-1.415 1.414a7 7 0 0 1-9.9-9.9l1.415-1.414L7.05 9.88l-1.414 1.414a5 5 0 1 0 7.071 7.071l1.414-1.414 1.415 1.414zm-.708-10.607l1.415 1.415-7.071 7.07-1.415-1.414 7.071-7.07z"/></symbol><symbol viewBox="0 0 24 24" id="hashtag"><path fill="none" d="M0 0h24v24H0z"/><path d="M7.784 14l.42-4H4V8h4.415l.525-5h2.011l-.525 5h3.989l.525-5h2.011l-.525 5H20v2h-3.784l-.42 4H20v2h-4.415l-.525 5h-2.011l.525-5H9.585l-.525 5H7.049l.525-5H4v-2h3.784zm2.011 0h3.99l.42-4h-3.99l-.42 4z"/></symbol><symbol viewBox="0 0 24 24" id="price-tag-3-line"><path fill="none" d="M0 0h24v24H0z"/><path d="M10.9 2.1l9.899 1.415 1.414 9.9-9.192 9.192a1 1 0 0 1-1.414 0l-9.9-9.9a1 1 0 0 1 0-1.414L10.9 2.1zm.707 2.122L3.828 12l8.486 8.485 7.778-7.778-1.06-7.425-7.425-1.06zm2.12 6.364a2 2 0 1 1 2.83-2.829 2 2 0 0 1-2.83 2.829z"/></symbol><symbol viewBox="0 0 24 24" id="mail-line"><path fill="none" d="M0 0h24v24H0z"/><path d="M3 3h18a1 1 0 0 1 1 1v16a1 1 0 0 1-1 1H3a1 1 0 0 1-1-1V4a1 1 0 0 1 1-1zm17 4.238l-7.928 7.1L4 7.216V19h16V7.238zM4.511 5l7.55 6.662L19.502 5H4.511z"/></symbol><symbol viewBox="0 0 24 24" id="twitter-line"><path fill="none" d="M0 0h24v24H0z"/><path d="M15.3 5.55a2.9 2.9 0 0 0-2.9 2.847l-.028 1.575a.6.6 0 0 1-.68.583l-1.561-.212c-2.054-.28-4.022-1.226-5.91-2.799-.598 3.31.57 5.603 3.383 7.372l1.747 1.098a.6.6 0 0 1 .034.993L7.793 18.17c.947.059 1.846.017 2.592-.131 4.718-.942 7.855-4.492 7.855-10.348 0-.478-1.012-2.141-2.94-2.141zm-4.9 2.81a4.9 4.9 0 0 1 8.385-3.355c.711-.005 1.316.175 2.669-.645-.335 1.64-.5 2.352-1.214 3.331 0 7.642-4.697 11.358-9.463 12.309-3.268.652-8.02-.419-9.382-1.841.694-.054 3.514-.357 5.144-1.55C5.16 15.7-.329 12.47 3.278 3.786c1.693 1.977 3.41 3.323 5.15 4.037 1.158.475 1.442.465 1.973.538z"/></symbol><symbol viewBox="0 0 24 24" id="weibo-line"><path fill="none" d="M0 0h24v24H0z"/><path d="M20.194 14.197c0 3.362-4.53 6.424-9.926 6.424C5.318 20.62 1 18.189 1 14.534c0-1.947 1.18-4.087 3.24-6.088 2.832-2.746 6.229-4.033 7.858-2.448.498.482.723 1.122.719 1.858 1.975-.576 3.65-.404 4.483.752.449.623.532 1.38.326 2.207 1.511.61 2.568 1.77 2.568 3.382zm-4.44-2.07c-.386-.41-.4-.92-.198-1.41.208-.508.213-.812.12-.94-.264-.368-1.533-.363-3.194.311a2.043 2.043 0 0 1-.509.14c-.344.046-.671.001-.983-.265-.419-.359-.474-.855-.322-1.316.215-.67.18-1.076.037-1.215-.186-.18-.777-.191-1.659.143-1.069.405-2.298 1.224-3.414 2.306C3.925 11.54 3 13.218 3 14.534c0 2.242 3.276 4.087 7.268 4.087 4.42 0 7.926-2.37 7.926-4.424 0-.738-.637-1.339-1.673-1.652-.394-.113-.536-.171-.767-.417zm7.054-1.617a1 1 0 0 1-1.936-.502 4 4 0 0 0-4.693-4.924 1 1 0 1 1-.407-1.958 6 6 0 0 1 7.036 7.384z"/></symbol><symbol viewBox="0 0 24 24" id="git-commit-line"><path fill="none" d="M0 0h24v24H0z"/><path d="M15.874 13a4.002 4.002 0 0 1-7.748 0H3v-2h5.126a4.002 4.002 0 0 1 7.748 0H21v2h-5.126zM12 14a2 2 0 1 0 0-4 2 2 0 0 0 0 4z"/></symbol><symbol viewBox="0 0 24 24" id="creative-commons-line"><path fill="none" d="M0 0h24v24H0z"/><path d="M12 2c5.523 0 10 4.477 10 10s-4.477 10-10 10S2 17.523 2 12 6.477 2 12 2zm0 2a8 8 0 1 0 0 16 8 8 0 0 0 0-16zM9 8c1.105 0 2.105.448 2.829 1.173l-1.414 1.414a2 2 0 1 0-.001 2.828l1.414 1.413A4.001 4.001 0 0 1 5 12c0-2.208 1.792-4 4-4zm7 0c1.105 0 2.105.448 2.829 1.173l-1.414 1.414a2 2 0 1 0-.001 2.828l1.414 1.413A4.001 4.001 0 0 1 12 12c0-2.208 1.792-4 4-4z"/></symbol></svg>